<svg width="16" height="16" viewBox="0 0 24 24" fill="none" xmlns="http://www.w3.org/2000/svg">
<path d="M22 12C22 17.5228 17.5228 22 12 22C6.47715 22 2 17.5228 2 12C2 6.47716 6.47715 2 12 2C17.5228 2 22 6.47716 22 12ZM16.119 9.45234C16.5529 9.01843 16.5529 8.31491 16.119 7.88099C15.6851 7.44708 14.9816 7.44708 14.5477 7.88099L12 10.4287L9.45234 7.88099C9.01843 7.44708 8.31491 7.44708 7.88099 7.88099C7.44708 8.31491 7.44708 9.01843 7.88099 9.45234L10.4287 12L7.88099 14.5477C7.44708 14.9816 7.44708 15.6851 7.88099 16.119C8.31491 16.5529 9.01842 16.5529 9.45234 16.119L12 13.5714L14.5477 16.119C14.9816 16.5529 15.6851 16.5529 16.119 16.119C16.5529 15.6851 16.5529 14.9816 16.119 14.5477L13.5713 12L16.119 9.45234Z" fill="#353030"/>
</svg>
