<svg width="16" height="16" viewBox="0 0 24 24" fill="none" xmlns="http://www.w3.org/2000/svg">
<path d="M10.022 3.94246C10.7029 2.68577 12.5064 2.68587 13.1871 3.94263L20.9873 18.3429C21.6369 19.5421 20.7686 21 19.4047 21H3.80241C2.43843 21 1.57011 19.542 2.21988 18.3427L10.022 3.94246ZM12.2041 9.59959C12.2041 9.26824 11.9354 8.99963 11.6041 8.99963C11.2727 8.99963 11.0041 9.26824 11.0041 9.59959V14.3993C11.0041 14.7306 11.2727 14.9993 11.6041 14.9993C11.9354 14.9993 12.2041 14.7306 12.2041 14.3993V9.59959ZM12.504 17.0991C12.504 16.6021 12.1011 16.1992 11.6041 16.1992C11.1071 16.1992 10.7041 16.6021 10.7041 17.0991C10.7041 17.5962 11.1071 17.9991 11.6041 17.9991C12.1011 17.9991 12.504 17.5962 12.504 17.0991Z" fill="#353030"/>
</svg>
