<svg width="32" height="32" viewBox="0 0 32 32" fill="none" xmlns="http://www.w3.org/2000/svg">
<path d="M23.6189 11.2355C23.6189 12.8134 22.3397 14.0926 20.7617 14.0926C19.1838 14.0926 17.9046 12.8134 17.9046 11.2355C17.9046 9.65753 19.1838 8.37835 20.7617 8.37835C22.3397 8.37835 23.6189 9.65753 23.6189 11.2355ZM21.7141 11.2355C21.7141 10.7095 21.2877 10.2831 20.7617 10.2831C20.2358 10.2831 19.8094 10.7095 19.8094 11.2355C19.8094 11.7615 20.2358 12.1879 20.7617 12.1879C21.2877 12.1879 21.7141 11.7615 21.7141 11.2355ZM2.6665 8.37835C2.6665 5.22244 5.22488 2.66406 8.38079 2.66406H23.6189C26.7748 2.66406 29.3332 5.22244 29.3332 8.37835V23.6164C29.3332 26.7724 26.7748 29.3307 23.6189 29.3307H8.38079C5.22488 29.3307 2.6665 26.7724 2.6665 23.6164V8.37835ZM8.38079 4.56882C6.27685 4.56882 4.57127 6.27441 4.57127 8.37835V23.6164C4.57127 24.3262 4.76538 24.9907 5.10341 25.5596L13.9973 16.8203C15.1089 15.728 16.8908 15.7281 18.0023 16.8203L26.8963 25.5596C27.2343 24.9907 27.4284 24.3262 27.4284 23.6164V8.37835C27.4284 6.27441 25.7228 4.56882 23.6189 4.56882H8.38079ZM8.38079 27.426H23.6189C24.322 27.426 24.9807 27.2355 25.546 26.9033L16.6673 18.1789C16.2968 17.8149 15.7029 17.8149 15.3323 18.1789L6.45362 26.9033C7.01899 27.2355 7.67764 27.426 8.38079 27.426Z" fill="#CFD0D9"/>
</svg>
